<svg width="17" height="17" viewBox="0 0 17 17" fill="none" xmlns="http://www.w3.org/2000/svg">
<path d="M8.45312 0C10.2365 3.94149e-05 11.9559 0.666245 13.2734 1.86816C14.591 3.07011 15.4118 4.72114 15.5752 6.49707H16.2559C16.4281 6.49719 16.593 6.56577 16.7148 6.6875C16.8368 6.80944 16.9053 6.97502 16.9053 7.14746C16.9024 8.69363 16.4769 10.2094 15.6748 11.5312C14.8726 12.8531 13.7247 13.931 12.3545 14.6475V14.9492C12.3545 15.294 12.2174 15.6253 11.9736 15.8691C11.7298 16.113 11.3986 16.25 11.0537 16.25H5.85254C5.50765 16.25 5.17649 16.113 4.93262 15.8691C4.68877 15.6253 4.55176 15.2941 4.55176 14.9492V14.6475C3.18147 13.931 2.03267 12.8532 1.23047 11.5312C0.428461 10.2095 0.0028927 8.69351 0 7.14746C0 6.9751 0.0685985 6.80942 0.19043 6.6875C0.312334 6.5656 0.477996 6.49711 0.650391 6.49707H1.33105C1.49443 4.7211 2.31522 3.07012 3.63281 1.86816C4.9504 0.666253 6.66969 0 8.45312 0ZM9.69141 9.74805C9.43062 9.75288 9.17575 9.82074 8.95703 9.94434C8.7385 10.0679 8.56409 10.2422 8.45312 10.4473C8.34184 10.2421 8.16698 10.0679 7.94824 9.94434C7.72941 9.82077 7.47474 9.753 7.21387 9.74805C6.85581 9.75042 6.5132 9.87465 6.25879 10.0938C6.00436 10.3129 5.85864 10.6095 5.85254 10.9209V10.9678C5.86429 11.2674 5.94799 11.5618 6.09961 11.8311C6.25126 12.1003 6.4674 12.3385 6.73242 12.5303C7.13462 12.8689 7.55054 13.1934 7.98047 13.5029C8.11355 13.5975 8.28025 13.6493 8.45215 13.6494C8.62422 13.6494 8.79161 13.5977 8.9248 13.5029C9.35535 13.1924 9.7712 12.868 10.1729 12.5303C10.4377 12.3386 10.6529 12.1001 10.8047 11.8311C10.9564 11.5621 11.0414 11.2681 11.0537 10.9688V10.9219C11.0483 10.6101 10.9022 10.3122 10.6475 10.0928C10.3928 9.87362 10.0497 9.74989 9.69141 9.74805ZM8.45312 1.2959C7.01431 1.29761 5.62605 1.82877 4.55371 2.78809C3.48159 3.74737 2.79994 5.06749 2.63867 6.49707H4.82227C5.16988 5.28346 5.83173 4.18318 6.74023 3.30664C7.64872 2.43012 8.77181 1.80785 9.99707 1.50391C9.49409 1.36568 8.97476 1.29626 8.45312 1.2959ZM13.4424 4.09375C12.0691 4.45992 10.8762 5.31444 10.0879 6.49707H14.2676C14.1734 5.64489 13.8914 4.82413 13.4424 4.09375ZM11.7041 2.5957C10.4947 2.59836 9.31584 2.97494 8.32812 3.67285C7.34049 4.37074 6.59196 5.35612 6.18555 6.49512H8.58301C9.41651 4.86063 10.8473 3.60982 12.5781 3.00098C12.4416 2.86552 12.2984 2.73617 12.1494 2.61426C12.0015 2.60288 11.8528 2.59571 11.7041 2.5957Z" fill="#5AB4C5"/>
</svg>
